<svg width="76" height="80" viewBox="0 0 76 80" fill="none" xmlns="http://www.w3.org/2000/svg">
<path d="M19.0113 59.232C19.0113 57.808 19.2513 56.576 19.7313 55.536C20.2273 54.48 20.8993 53.68 21.7473 53.136C22.5953 52.576 23.5473 52.296 24.6033 52.296C25.4833 52.296 26.2353 52.48 26.8593 52.848C27.4993 53.2 27.9873 53.688 28.3233 54.312V48.24H33.6513V66H28.3233V64.152C27.9873 64.776 27.4993 65.272 26.8593 65.64C26.2353 65.992 25.4833 66.168 24.6033 66.168C23.5473 66.168 22.5953 65.896 21.7473 65.352C20.8993 64.792 20.2273 63.992 19.7313 62.952C19.2513 61.896 19.0113 60.656 19.0113 59.232ZM28.3473 59.232C28.3473 58.512 28.1633 57.952 27.7953 57.552C27.4273 57.152 26.9553 56.952 26.3793 56.952C25.8033 56.952 25.3313 57.152 24.9633 57.552C24.5953 57.952 24.4113 58.512 24.4113 59.232C24.4113 59.952 24.5953 60.512 24.9633 60.912C25.3313 61.312 25.8033 61.512 26.3793 61.512C26.9553 61.512 27.4273 61.312 27.7953 60.912C28.1633 60.512 28.3473 59.952 28.3473 59.232Z" fill="#A78295"/>
<path d="M72.7581 49.008L68.8701 66H62.2461L60.2781 56.352L58.3101 66H51.6861L47.7981 49.008H53.5341L55.0701 59.712L57.3741 49.008H63.1821L65.4861 59.712L67.0221 49.008H72.7581Z" fill="#EFE1D1"/>
<path d="M69.9162 14.6152C70.0476 14.4426 70.1303 14.234 70.1547 14.0135C70.1791 13.793 70.1443 13.5698 70.0542 13.3695C69.9641 13.1692 69.8224 13 69.6456 12.8816C69.4688 12.7632 69.264 12.7004 69.0549 12.7004H26.8039C26.5933 10.0949 25.6904 7.60638 24.2001 5.52434C22.7097 3.44231 20.6933 1.85229 18.3853 0.939221C16.0773 0.0261513 13.5725 -0.172443 11.1624 0.366537C8.75224 0.905517 6.53574 2.15992 4.77069 3.98385C3.00565 5.80777 1.76459 8.12626 1.19188 10.6697C0.619159 13.213 0.738318 15.8768 1.53549 18.3511C2.33267 20.8254 3.7751 23.0086 5.69501 24.6467C7.61493 26.2848 9.93342 27.3105 12.3808 27.6046C12.8692 27.6613 13.3602 27.6898 13.8515 27.6899C16.4508 27.6954 18.9913 26.8689 21.1415 25.3182L37.513 46.8081V71.6903C37.5132 71.9856 37.4319 72.2745 37.279 72.5213C37.1262 72.768 36.9085 72.9617 36.653 73.0784L26.6008 77.6828C26.3667 77.7899 26.1747 77.9794 26.057 78.2194C25.9393 78.4594 25.9031 78.7352 25.9547 79.0002C26.0062 79.2652 26.1422 79.5032 26.3398 79.6741C26.5374 79.845 26.7845 79.9383 27.0393 79.9382H55.8639C56.1188 79.9383 56.3658 79.845 56.5634 79.6741C56.761 79.5032 56.897 79.2652 56.9486 79.0002C57.0001 78.7352 56.9639 78.4594 56.8462 78.2194C56.7285 77.9794 56.5365 77.7899 56.3025 77.6828L46.2502 73.0784C45.9948 72.9615 45.7773 72.7678 45.6244 72.5211C45.4716 72.2744 45.3902 71.9856 45.3902 71.6903V46.8081L69.9162 14.6152ZM12.6226 25.2664C10.5997 25.021 8.68336 24.1734 7.09476 22.8212C5.50617 21.4691 4.31004 19.6676 3.64442 17.6246C2.9788 15.5817 2.87081 13.3805 3.33292 11.2752C3.79503 9.16989 4.80839 7.2462 6.25608 5.72614C7.70377 4.20608 9.52676 3.1516 11.5147 2.6844C13.5026 2.2172 15.5745 2.35631 17.4911 3.08568C19.4078 3.81505 21.0912 5.10495 22.3469 6.80653C23.6027 8.50811 24.3798 10.552 24.5884 12.7024H13.849C13.6399 12.7024 13.4351 12.7652 13.2583 12.8836C13.0814 13.002 12.9398 13.1712 12.8497 13.3715C12.7596 13.5718 12.7247 13.7951 12.7492 14.0155C12.7736 14.236 12.8563 14.4446 12.9877 14.6172L19.743 23.4806C17.6383 24.9392 15.1196 25.5709 12.6226 25.2664ZM45.3719 75.2378L50.4977 77.5894H32.3992L37.525 75.2378C38.1779 74.9394 38.734 74.4443 39.1246 73.8137C39.5152 73.1832 39.7232 72.445 39.7228 71.6903V46.3922C39.7229 46.1232 39.636 45.8623 39.4766 45.6531L16.1695 15.0519H66.7344L43.4222 45.6531C43.2626 45.8622 43.1755 46.1231 43.1754 46.3922V71.6903C43.175 72.4448 43.3829 73.1829 43.7732 73.8133C44.1636 74.4438 44.7194 74.939 45.3719 75.2378Z" fill="#EFE1D1"/>
<path d="M57.0257 22.726C56.8916 22.5172 56.6977 22.3598 56.4727 22.2772C56.2477 22.1945 56.0036 22.191 55.7766 22.2672C50.1483 24.1558 47.307 23.1675 44.0177 22.0212C41.3036 20.9457 38.4347 20.3774 35.538 20.3416C29.2522 20.3416 26.3135 22.3189 26.1913 22.4035C26.0613 22.4933 25.9504 22.611 25.8659 22.7492C25.7815 22.8873 25.7253 23.0427 25.701 23.2054C25.6767 23.3681 25.6849 23.5343 25.725 23.6934C25.7651 23.8525 25.8362 24.0009 25.9338 24.1289L40.5903 43.3694C40.6941 43.5058 40.8254 43.6157 40.9744 43.6913C41.1234 43.7669 41.2865 43.8061 41.4516 43.8061C41.6167 43.8061 41.7798 43.7669 41.9288 43.6913C42.0778 43.6157 42.209 43.5058 42.3129 43.3694L56.972 24.1282C57.1215 23.9316 57.2075 23.6891 57.2172 23.4366C57.2269 23.1841 57.1597 22.9349 57.0257 22.726ZM41.4516 40.7605L28.5492 23.8239C30.7979 23.0156 33.1627 22.6327 35.5361 22.6925C38.199 22.7285 40.8356 23.2576 43.3273 24.2559C46.1667 25.2449 48.8789 26.1902 53.1681 25.3813L41.4516 40.7605ZM13.8489 10.3199C14.1427 10.3199 14.4243 10.196 14.632 9.97549C14.8397 9.75499 14.9564 9.45593 14.9564 9.14409V5.96948C14.9564 5.65765 14.8397 5.35858 14.632 5.13808C14.4243 4.91758 14.1427 4.7937 13.8489 4.7937C13.5552 4.7937 13.2736 4.91758 13.0659 5.13808C12.8582 5.35858 12.7415 5.65765 12.7415 5.96948V9.14409C12.7415 9.45593 12.8582 9.75499 13.0659 9.97549C13.2736 10.196 13.5552 10.3199 13.8489 10.3199ZM12.7415 21.7827C12.7415 22.0946 12.8582 22.3936 13.0659 22.6141C13.2736 22.8346 13.5552 22.9585 13.8489 22.9585C14.1427 22.9585 14.4243 22.8346 14.632 22.6141C14.8397 22.3936 14.9564 22.0946 14.9564 21.7827V18.6075C14.9564 18.2956 14.8397 17.9965 14.632 17.776C14.4243 17.5555 14.1427 17.4317 13.8489 17.4317C13.5552 17.4317 13.2736 17.5555 13.0659 17.776C12.8582 17.9965 12.7415 18.2956 12.7415 18.6075V21.7827ZM10.5001 13.8761C10.5001 13.5643 10.3834 13.2652 10.1757 13.0447C9.96806 12.8242 9.68639 12.7003 9.39268 12.7003H6.40201C6.1083 12.7003 5.82662 12.8242 5.61894 13.0447C5.41126 13.2652 5.29459 13.5643 5.29459 13.8761C5.29459 14.1879 5.41126 14.487 5.61894 14.7075C5.82662 14.928 6.1083 15.0519 6.40201 15.0519H9.39268C9.68634 15.0517 9.96791 14.9278 10.1756 14.7073C10.3832 14.4869 10.4999 14.1879 10.5001 13.8761ZM17.0004 11.706C17.1455 11.7058 17.2891 11.6753 17.4231 11.6161C17.5571 11.557 17.6788 11.4704 17.7812 11.3613L19.8961 9.11654C19.9989 9.00736 20.0805 8.87773 20.1362 8.73507C20.1918 8.59241 20.2205 8.43951 20.2205 8.2851C20.2205 8.13069 20.1918 7.97778 20.1362 7.83512C20.0805 7.69246 19.9989 7.56284 19.8961 7.45365C19.7933 7.34447 19.6712 7.25786 19.5368 7.19876C19.4024 7.13967 19.2584 7.10926 19.113 7.10926C18.9676 7.10926 18.8235 7.13967 18.6892 7.19876C18.5548 7.25786 18.4327 7.34447 18.3299 7.45365L16.2169 9.69839C16.0622 9.86295 15.9569 10.0725 15.9143 10.3006C15.8717 10.5286 15.8937 10.765 15.9775 10.9798C16.0613 11.1946 16.2032 11.3782 16.3853 11.5075C16.5673 11.6367 16.7814 11.7058 17.0004 11.706ZM9.91475 16.3903L7.79989 18.6343C7.69406 18.7427 7.60962 18.8724 7.5515 19.0158C7.49338 19.1592 7.46275 19.3135 7.46138 19.4696C7.46002 19.6257 7.48795 19.7806 7.54355 19.9251C7.59915 20.0696 7.6813 20.201 7.78522 20.3114C7.88913 20.4219 8.01273 20.5093 8.14879 20.5685C8.28485 20.6277 8.43066 20.6575 8.5777 20.6563C8.72474 20.655 8.87008 20.6227 9.00522 20.5611C9.14037 20.4996 9.26262 20.4101 9.36484 20.2979L11.4791 18.0525C11.6867 17.8321 11.8033 17.5331 11.8033 17.2214C11.8033 16.9096 11.6867 16.6107 11.4791 16.3903C11.2715 16.1698 10.9899 16.046 10.6963 16.046C10.4027 16.046 10.1211 16.1698 9.91348 16.3903H9.91475ZM9.36484 7.45365C9.262 7.34447 9.13991 7.25786 9.00554 7.19876C8.87118 7.13967 8.72717 7.10926 8.58173 7.10926C8.43629 7.10926 8.29228 7.13967 8.15792 7.19876C8.02355 7.25786 7.90146 7.34447 7.79863 7.45365C7.69579 7.56284 7.61421 7.69246 7.55855 7.83512C7.5029 7.97778 7.47425 8.13069 7.47425 8.2851C7.47425 8.43951 7.5029 8.59241 7.55855 8.73507C7.61421 8.87773 7.69579 9.00736 7.79863 9.11654L9.91348 11.3613C10.1212 11.5819 10.4029 11.7058 10.6967 11.7059C10.9905 11.706 11.2722 11.5821 11.48 11.3616C11.6878 11.1411 11.8045 10.842 11.8046 10.5301C11.8047 10.2182 11.688 9.91899 11.4803 9.69839L9.36484 7.45365Z" fill="#EFE1D1"/>
</svg>
